Genre:Horror | Mystery | Thriller
 Language:English
 IMDb:http://www.imdb.com/title/tt1262416/
 Source:Russian/Imagine Thanks!

 Format : AVI
 Format/Info : Audio Video Interleave
 File size : 800 MiB
 Duration : 1h 39mn
 Overall bit rate : 1 126 Kbps

 Video
 ID : 0
 Format : MPEG-4 Visual
 Format profile : Advanced Simple@L5
 Format settings, BVOP : Yes
 Format settings, QPel : No
 Format settings, GMC : No warppoints
 Format settings, Matrix : Default (H.263)
 Muxing mode : Packed bitstream
 Codec ID : XVID
 Codec ID/Hint : XviD
 Duration : 1h 39mn
 Bit rate : 988 Kbps
 Width : 688 pixels
 Height : 288 pixels
 Display aspect ratio : 2.35:1
 Frame rate : 25.000 fps
 Color space : YUV
 Chroma subsampling : 4:2:0
 Bit depth : 8 bits
 Scan type : Progressive
 Bits/(Pixel*Frame) : 0.200
 Stream size : 702 MiB (88%)
 Writing library : XviD 1.2.1 (UTC 2008-12-04)

 Audio
 ID : 1
 Format : MPEG Audio
 Format version : Version 1
 Format profile : Layer 3
 Codec ID : 55
 Codec ID/Hint : MP3
 Duration : 1h 39mn
 Bit rate mode : Constant
 Bit rate : 128 Kbps
 Channel(s) : 2 channels
 Sampling rate : 44.1 KHz
 Stream size : 90.9 MiB (11%)
 Alignment : Split accross interleaves
 Interleave, duration : 40 ms (1.00 video frame)
 Interleave, preload duration : 500 ms



 Plot:
 Ten years have passed, and Sidney Prescott, who has put herself back together thanks in part to her writing, is visited by the Ghostface Killer.
